#!OML:ASF F:\twosubjects\two\Thursday\Session 1\justin.ASF
:FULLY-SPECIFIED
:DEGREES
378
root -2.9638 17.937 7.95716 -525.561 -59.5443 531.313
lowerback 1.70557 0.58367 -7.81793
upperback 1.53711 0.657087 -0.0994678
thorax 0.546469 0.248328 4.27361
lowerneck -12.6745 -10.5875 -16.4813
upperneck 22.7989 -15.9797 15.0796
head 12.2268 -7.3817 5.79136
rclavicle 9.26834e-015 8.74653e-015
rhumerus -22.0555 -15.7478 -71.8683
rradius 24.4829
rwrist 6.69054
rhand -15.568 15.0764
rfingers 7.12502
rthumb 10.6169 -14.6354
lclavicle 9.26834e-015 8.74653e-015
lhumerus -29.1197 7.12309 73.4315
lradius 27.4251
lwrist -10.3244
lhand -4.47268 38.0333
lfingers 7.12502
lthumb 21.3 66.8828
rfemur -6.43276 5.11957 17.6825
rtibia 35.3518
rfoot -27.9381 -2.10088
rtoes -8.07131
lfemur -22.3893 1.79763 -19.871
ltibia 26.0796
lfoot -9.27613 -9.62962
ltoes -11.5693
379
root -3.05476 17.9397 7.91534 -527.231 -59.0928 532.737
lowerback 1.86813 0.609945 -7.36061
upperback 1.55738 0.685868 0.000735307
thorax 0.47488 0.269013 4.11898
lowerneck -12.5617 -10.537 -16.4818
upperneck 23.0522 -15.9651 14.9854
head 12.2892 -7.39734 5.76899
rclavicle -5.28767e-014 3.18055e-015
rhumerus -22.3597 -16.7676 -72.1628
rradius 22.698
rwrist 10.2448
rhand -14.3819 17.0915
rfingers 7.12502
rthumb 11.7608 -12.5583
lclavicle -5.28767e-014 3.18055e-015
lhumerus -28.9375 7.08815 73.3509
lradius 27.113
lwrist -10.2575
lhand -4.62062 39.1012
lfingers 7.12502
lthumb 21.1579 67.9667
rfemur -6.4572 5.09637 18.4745
rtibia 36.827
rfoot -27.3592 -2.24904
rtoes -9.02022
lfemur -21.5669 1.82986 -19.0949
ltibia 26.3521
lfoot -9.67946 -9.00389
ltoes -12.1027
380
root -3.14298 17.9301 7.88991 -528.553 -58.6509 533.939
lowerback 1.89556 0.690273 -6.81409
upperback 1.61873 0.800919 0.0377006
thorax 0.513395 0.328318 3.84832
lowerneck -12.5786 -10.5486 -16.2886
upperneck 23.2818 -16.0132 14.7619
head 12.3487 -7.42649 5.64523
rclavicle -1.05604e-014 1.37658e-014
rhumerus -22.6561 -17.8335 -72.3994
rradius 21.4151
rwrist 13.531
rhand -12.3979 16.7221
rfingers 7.12502
rthumb 13.6736 -12.8087
lclavicle -1.05604e-014 1.37658e-014
lhumerus -28.4796 7.18339 73.3211
lradius 26.6987
lwrist -10.4747
lhand -4.67829 39.358
lfingers 7.12502
lthumb 21.1025 68.2297
rfemur -6.76894 4.89094 19.0992
rtibia 38.3531
rfoot -26.3955 -2.6138
rtoes -11.7732
lfemur -20.9846 1.71357 -18.4611
ltibia 26.6396
lfoot -10.1174 -8.20394
ltoes -12.0365
381
root -3.23254 17.9187 7.89405 -528.772 -58.0193 534.265
lowerback 1.64289 0.793036 -6.42024
upperback 1.67551 0.963731 -0.0796402
thorax 0.701629 0.406099 3.50663
lowerneck -12.873 -10.6196 -15.9726
upperneck 23.4836 -16.0698 14.4057
head 12.4298 -7.44112 5.43511
rclavicle -2.6252e-014 -9.98893e-015
rhumerus -22.5651 -18.9202 -72.5945
rradius 20.0436
rwrist 16.4229
rhand -10.8588 16.0853
rfingers 7.12502
rthumb 15.1565 -13.3397
lclavicle -2.6252e-014 -9.98893e-015
lhumerus -27.6114 8.37091 73.1221
lradius 25.839
lwrist -11.7227
lhand -4.98363 39.2984
lfingers 7.12502
lthumb 20.8091 68.2025
rfemur -7.62475 4.36514 18.9415
rtibia 40.019
rfoot -25.4124 -2.37137
rtoes -14.9386
lfemur -20.8042 1.5989 -18.4873
ltibia 26.8448
lfoot -10.4001 -7.3677
ltoes -11.7293
382
root -3.32132 17.9231 7.8966 -528.583 -57.2207 534.133
lowerback 1.44975 0.833229 -6.30899
upperback 1.65292 1.0316 -0.24459
thorax 0.783681 0.439503 3.27541
lowerneck -13.1463 -10.5944 -15.8702
upperneck 23.6798 -16.0074 14.261
head 12.5259 -7.40511 5.3676
rclavicle 1.84373e-014 1.29955e-014
rhumerus -22.6142 -19.7683 -72.8312
rradius 18.809
rwrist 18.3301
rhand -9.44399 15.1539
rfingers 7.12502
rthumb 16.519 -14.1629
lclavicle 1.84373e-014 1.29955e-014
lhumerus -27.0797 9.4692 72.9224
lradius 25.2129
lwrist -12.7101
lhand -5.22688 39.4018
lfingers 7.12502
lthumb 20.5754 68.3314
rfemur -8.6215 3.98768 18.4121
rtibia 41.8692
rfoot -24.6365 -1.28432
rtoes -15.9723
lfemur -20.5245 1.56844 -18.8042
ltibia 26.8945
lfoot -10.7834 -6.47485
ltoes -12.6248
383
root -3.40344 17.9388 7.88653 -528.002 -56.3889 533.613
lowerback 1.24973 0.936351 -6.63714
upperback 1.52086 1.17668 -0.419094
thorax 0.742587 0.513518 3.27923
lowerneck -13.1343 -10.5397 -15.9027
upperneck 23.7401 -15.9521 14.2965
head 12.5437 -7.38412 5.40004
rclavicle -7.0786e-015 2.41772e-014
rhumerus -23.1469 -20.6752 -72.9232
rradius 18.1597
rwrist 19.4154
rhand -8.21695 14.4157
rfingers 7.12502
rthumb 17.7001 -14.7987
lclavicle -7.0786e-015 2.41772e-014
lhumerus -26.743 9.97835 72.989
lradius 24.8257
lwrist -13.3062
lhand -5.52436 39.741
lfingers 7.12502
lthumb 20.2895 68.7013
rfemur -9.82328 3.95724 17.6769
rtibia 43.8422
rfoot -23.8079 -0.032961
rtoes -13.815
lfemur -20.217 1.58296 -19.317
ltibia 26.7638
lfoot -11.0895 -5.62038
ltoes -13.6078
384
root -3.48462 17.9504 7.86342 -528.009 -55.6632 533.655
lowerback 1.10545 1.09007 -6.77209
upperback 1.43454 1.38891 -0.498196
thorax 0.711079 0.621618 3.27249
lowerneck -13.1894 -10.5617 -15.8383
upperneck 23.8405 -16.0086 14.2616
head 12.5954 -7.40673 5.36417
rclavicle -6.33725e-014 2.73143e-014
rhumerus -23.9069 -22.192 -72.8201
rradius 17.8286
rwrist 20.9831
rhand -7.36542 14.5264
rfingers 7.12502
rthumb 18.5193 -14.6121
lclavicle -6.33725e-014 2.73143e-014
lhumerus -26.2443 10.2186 73.1698
lradius 24.3247
lwrist -13.6949
lhand -5.70273 40.0072
lfingers 7.12502
lthumb 20.1181 68.9855
rfemur -10.8471 3.87001 17.3709
rtibia 45.7907
rfoot -22.9584 0.756577
rtoes -12.2674
lfemur -19.732 1.86463 -19.4544
ltibia 26.5435
lfoot -11.1693 -5.24083
ltoes -12.4082
385
root -3.57157 17.9586 7.83428 -528.417 -55.0636 534.019
lowerback 0.958964 1.10542 -6.77438
upperback 1.43572 1.42263 -0.434335
thorax 0.789424 0.636261 3.34242
lowerneck -13.38 -10.5328 -15.8066
upperneck 23.9688 -15.9393 14.1645
head 12.6589 -7.37396 5.32998
rclavicle 8.71034e-014 -2.75969e-014
rhumerus -24.5265 -23.1202 -72.8784
rradius 17.7774
rwrist 22.3399
rhand -6.01357 13.8089
rfingers 7.12502
rthumb 19.8193 -15.2006
lclavicle 8.71034e-014 -2.75969e-014
lhumerus -25.8747 10.6483 73.3572
lradius 23.9659
lwrist -13.8997
lhand -5.69673 40.0781
lfingers 7.12502
lthumb 20.1239 69.0559
rfemur -11.617 3.53107 17.2867
rtibia 47.63
rfoot -21.846 1.37136
rtoes -10.6549
lfemur -19.0978 2.3339 -19.4006
ltibia 26.3728
lfoot -11.3924 -5.07986
ltoes -11.4187
386
root -3.65372 17.9634 7.81088 -528.852 -54.5095 534.51
lowerback 0.79558 1.04549 -6.70918
upperback 1.43555 1.35941 -0.221932
thorax 0.884359 0.603212 3.52929
lowerneck -13.5923 -10.4567 -16.201
upperneck 24.0084 -15.7512 14.3386
head 12.7404 -7.29648 5.49418
rclavicle 1.40827e-014 2.08475e-014
rhumerus -24.9468 -22.9047 -73.1625
rradius 17.8678
rwrist 22.1759
rhand -4.68551 12.2773
rfingers 7.12502
rthumb 21.0956 -16.5951
lclavicle 1.40827e-014 2.08475e-014
lhumerus -25.6478 11.31 73.6829
lradius 23.8316
lwrist -14.0431
lhand -5.59202 40.1749
lfingers 7.12502
lthumb 20.2245 69.142
rfemur -12.5256 3.11645 17.252
rtibia 49.3427
rfoot -20.3198 2.10943
rtoes -9.23778
lfemur -18.6293 2.80171 -19.2694
ltibia 26.2841
lfoot -11.6651 -4.86898
ltoes -11.6204
387
root -3.73206 17.97 7.7925 -529.293 -53.9998 535.054
lowerback 0.781793 1.0058 -6.49181
upperback 1.37629 1.30893 -0.0508603
thorax 0.836868 0.584148 3.58434
lowerneck -13.8056 -10.3835 -16.5965
upperneck 24.0052 -15.5685 14.5586
head 12.81 -7.21689 5.67605
rclavicle 9.23728e-014 -2.22639e-014
rhumerus -25.2945 -23.1469 -73.3198
rradius 17.4741
rwrist 22.0356
rhand -4.4496 11.6338
rfingers 7.12502
rthumb 21.3222 -17.2132
lclavicle 9.23728e-014 -2.22639e-014
lhumerus -25.4583 11.7697 73.9346
lradius 23.6954
lwrist -14.1217
lhand -5.32399 39.5415
lfingers 7.12502
lthumb 20.4821 68.4811
rfemur -13.4942 2.60747 17.2736
rtibia 50.9726
rfoot -18.8971 2.83742
rtoes -10.5075
lfemur -18.2017 3.01335 -19.0317
ltibia 26.1613
lfoot -11.7897 -4.70626
ltoes -9.8705
388
root -3.8093 17.9799 7.77067 -529.241 -53.4498 534.98
lowerback 0.685424 1.04724 -6.66778
upperback 1.36265 1.3707 -0.0566981
thorax 0.866732 0.612649 3.67835
lowerneck -13.98 -10.4182 -16.5429
upperneck 23.961 -15.5797 14.5256
head 12.822 -7.20936 5.64322
rclavicle -2.44754e-014 3.18055e-015
rhumerus -25.7051 -23.5947 -73.543
rradius 17.1521
rwrist 21.735
rhand -4.72932 11.4882
rfingers 7.12502
rthumb 21.0535 -17.3889
lclavicle -2.44754e-014 3.18055e-015
lhumerus -25.0791 11.6869 74.3021
lradius 23.622
lwrist -14.0905
lhand -5.59699 39.1625
lfingers 7.12502
lthumb 20.2197 68.1301
rfemur -14.4445 2.17444 16.9414
rtibia 52.5581
rfoot -17.6324 3.26452
rtoes -11.6806
lfemur -17.7068 3.17496 -19.2007
ltibia 25.9419
lfoot -11.9504 -4.51504
ltoes -8.4679
389
root -3.88018 17.9866 7.74294 -528.938 -52.9302 534.551
lowerback 0.616971 1.01682 -7.16141
upperback 1.31999 1.33235 -0.111224
thorax 0.857087 0.589705 3.89975
lowerneck -14.1061 -10.4372 -16.3987
upperneck 23.9824 -15.6154 14.4692
head 12.8435 -7.21316 5.58475
rclavicle 2.6867e-014 -5.91384e-015
rhumerus -26.3526 -23.3723 -74.0448
rradius 17.4759
rwrist 21.1459
rhand -4.75067 11.2697
rfingers 7.12502
rthumb 21.033 -17.6097
lclavicle 2.6867e-014 -5.91384e-015
lhumerus -24.8279 11.3985 74.7604
lradius 23.816
lwrist -13.9797
lhand -6.021 40.2719
lfingers 7.12502
lthumb 19.8122 69.2821
rfemur -15.2929 1.90281 16.4348
rtibia 54.0615
rfoot -16.4475 3.37374
rtoes -12.2247
lfemur -17.1493 3.40645 -19.5906
ltibia 25.6379
lfoot -12.0091 -4.45119
ltoes -7.42202
390
root -3.94864 17.9931 7.71379 -528.436 -52.5774 533.926
lowerback 0.689586 0.810058 -7.71426
upperback 1.08443 1.03909 -0.204134
thorax 0.601199 0.454338 4.11156
lowerneck -13.9686 -10.2816 -16.2509
upperneck 24.0348 -15.4374 14.356
head 12.7747 -7.14732 5.55895
rclavicle 2.02201e-014 -3.1731e-014
rhumerus -27.3315 -22.9685 -74.5695
rradius 18.0804
rwrist 20.8279
rhand -4.32235 10.9498
rfingers 7.12502
rthumb 21.4444 -17.8833
lclavicle 2.02201e-014 -3.1731e-014
lhumerus -25.155 11.1122 74.9445
lradius 24.2484
lwrist -13.7103
lhand -6.05356 41.6184
lfingers 7.12502
lthumb 19.7809 70.6318
rfemur -16.1288 1.47908 15.7857
rtibia 55.4923
rfoot -15.5876 3.47167
rtoes -12.3506
lfemur -16.6463 3.51008 -20.0611
ltibia 25.2857
lfoot -11.9322 -4.59774
ltoes -4.64389
